<?xml version="1.0" encoding="UTF-8"?>
<svg xmlns="http://www.w3.org/2000/svg" width="120" height="36" viewBox="0 0 120 36">
  <path fill="#FF9900" d="M69.45,25.31c-5.89,4.35-14.42,6.67-21.77,6.67c-10.31,0-19.59-3.81-26.61-10.15c-0.55-0.5-0.06-1.18,0.6-0.79 c7.57,4.41,16.91,7.07,26.56,7.07c6.51,0,13.67-1.35,20.27-4.15C69.39,23.51,70.35,24.64,69.45,25.31z"/>
  <path fill="#FF9900" d="M71.88,22.5c-0.75-0.96-4.96-0.46-6.85-0.23c-0.57,0.07-0.66-0.43-0.14-0.79c3.36-2.36,8.86-1.68,9.5-0.89 c0.64,0.8-0.17,6.33-3.33,8.97c-0.48,0.4-0.94,0.19-0.73-0.35C71.03,27.38,72.63,23.46,71.88,22.5z"/>
  <path fill="#000000" d="M64.14,15.94v-2.36c0-0.36,0.27-0.6,0.6-0.6h10.62c0.34,0,0.61,0.24,0.61,0.6v2.02c0,0.34-0.29,0.79-0.8,1.5 l-5.51,7.86c2.04-0.05,4.2,0.26,6.06,1.3c0.42,0.23,0.53,0.57,0.56,0.91v2.52c0,0.34-0.37,0.74-0.77,0.53 c-3.2-1.67-7.47-1.85-11.01,0.02c-0.36,0.16-0.74-0.19-0.74-0.53v-2.4c0-0.37,0.01-1.01,0.38-1.58l6.38-9.15h-5.55 C64.41,16.56,64.14,16.31,64.14,15.94z"/>
  <path fill="#000000" d="M23.27,26.33h-3.23c-0.31-0.02-0.55-0.25-0.57-0.54l0.01-16.67c0-0.33,0.27-0.59,0.62-0.59h3.01 c0.31,0.01,0.56,0.25,0.58,0.55v2.18h0.06c0.79-2.09,2.27-3.06,4.26-3.06c2.03,0,3.29,0.97,4.2,3.06 c0.78-2.09,2.55-3.06,4.45-3.06c1.35,0,2.83,0.56,3.73,1.81c1.02,1.39,0.81,3.41,0.81,5.18l-0.01,10.54 c0,0.33-0.27,0.59-0.61,0.59h-3.22c-0.32-0.02-0.57-0.28-0.57-0.59V16.41c0-0.65,0.06-2.27-0.08-2.88 c-0.23-1.04-0.9-1.33-1.77-1.33c-0.73,0-1.49,0.49-1.8,1.27c-0.31,0.78-0.28,2.09-0.28,2.94v9.33c0,0.33-0.27,0.59-0.61,0.59 h-3.22c-0.32-0.02-0.57-0.28-0.57-0.59l-0.01-9.33c0-1.72,0.28-4.25-1.85-4.25c-2.16,0-2.07,2.46-2.07,4.25v9.33 C23.89,26.07,23.61,26.33,23.27,26.33z"/>
  <path fill="#000000" d="M87.32,8.73c4.75,0,7.33,4.09,7.33,9.28c0,5.02-2.85,9-7.33,9c-4.67,0-7.22-4.09-7.22-9.19 C80.1,12.82,82.7,8.73,87.32,8.73z M87.37,12.05c-2.36,0-2.51,3.22-2.51,5.22c0,2,0,6.3,2.48,6.3c2.48,0,2.59-3.45,2.59-5.56 c0-1.39-0.06-3.05-0.48-4.37C89.05,12.54,88.24,12.05,87.37,12.05z"/>
  <path fill="#000000" d="M99.29,26.33h-3.21c-0.32-0.02-0.57-0.28-0.57-0.59l-0.01-16.67c0.03-0.3,0.29-0.53,0.62-0.53h2.98 c0.28,0.01,0.51,0.21,0.57,0.47v2.55h0.06c0.9-2.25,2.16-3.33,4.37-3.33c1.44,0,2.85,0.52,3.75,1.95 c0.84,1.32,0.84,3.54,0.84,5.14v10.41c-0.04,0.3-0.3,0.53-0.62,0.53h-3.23c-0.29-0.02-0.54-0.24-0.57-0.53v-9 c0-1.81,0.21-4.46-2.02-4.46c-0.79,0-1.51,0.52-1.87,1.32c-0.45,1.01-0.51,2.02-0.51,3.14v8.93 C99.89,26.07,99.62,26.33,99.29,26.33z"/>
  <path fill="#000000" d="M47.98,19.15c0,1.25,0.03,2.29-0.6,3.4c-0.51,0.91-1.32,1.47-2.22,1.47c-1.23,0-1.96-0.94-1.96-2.32 c0-2.73,2.45-3.22,4.77-3.22V19.15z M51.27,26.33c-0.21,0.19-0.52,0.2-0.76,0.07c-1.07-0.89-1.26-1.3-1.85-2.15 c-1.77,1.81-3.03,2.35-5.32,2.35c-2.72,0-4.82-1.67-4.82-5.03c0-2.62,1.42-4.4,3.44-5.27c1.75-0.77,4.2-0.91,6.07-1.12v-0.42 c0-0.77,0.06-1.67-0.39-2.33c-0.39-0.59-1.14-0.84-1.8-0.84c-1.22,0-2.31,0.63-2.58,1.93c-0.05,0.29-0.27,0.57-0.56,0.58 l-3.13-0.34c-0.26-0.06-0.56-0.27-0.48-0.67c0.72-3.8,4.16-4.94,7.24-4.94c1.57,0,3.63,0.42,4.87,1.61 c1.57,1.46,1.42,3.4,1.42,5.52v5c0,1.5,0.62,2.16,1.21,2.97c0.2,0.29,0.25,0.63-0.01,0.84c-0.65,0.54-1.81,1.54-2.45,2.1 L51.27,26.33z"/>
  <path fill="#000000" d="M9.21,19.15c0,1.25,0.03,2.29-0.6,3.4C8.1,23.46,7.29,24.02,6.39,24.02c-1.23,0-1.96-0.94-1.96-2.32 c0-2.73,2.45-3.22,4.77-3.22V19.15z M12.5,26.33c-0.21,0.19-0.52,0.2-0.76,0.07c-1.07-0.89-1.26-1.3-1.85-2.15 c-1.77,1.81-3.03,2.35-5.32,2.35c-2.72,0-4.82-1.67-4.82-5.03c0-2.62,1.42-4.4,3.44-5.27c1.75-0.77,4.2-0.91,6.07-1.12v-0.42 c0-0.77,0.06-1.67-0.39-2.33c-0.39-0.59-1.14-0.84-1.8-0.84c-1.22,0-2.31,0.63-2.58,1.93c-0.05,0.29-0.27,0.57-0.56,0.58 L1.8,13.77c-0.26-0.06-0.56-0.27-0.48-0.67C2.04,9.3,5.48,8.16,8.56,8.16c1.57,0,3.63,0.42,4.87,1.61 c1.57,1.46,1.42,3.4,1.42,5.52v5c0,1.5,0.62,2.16,1.21,2.97c0.2,0.29,0.25,0.63-0.01,0.84c-0.65,0.54-1.81,1.54-2.45,2.1 L12.5,26.33z"/>
</svg>